<?xml version="1.0" encoding="UTF-8"?>
<svg id="Layer_1" data-name="Layer 1" xmlns="http://www.w3.org/2000/svg" viewBox="0 0 1700 886.07">
  <defs>
    <style>
      .cls-1 {
        fill: #006837;
      }

      .cls-2 {
        fill: #fce751;
      }

      .cls-3 {
        fill: #97b067;
      }

      .cls-4 {
        fill: #d8c345;
      }

      .cls-5 {
        fill: #77ab3c;
      }
    </style>
  </defs>
  <g>
    <path class="cls-1" d="M731.08,285.06v66.56h70.2v-66.56h38.14v173.43h-38.14v-74.82h-70.2v74.82h-38.14v-173.43h38.14Z"/>
    <path class="cls-1" d="M870.26,313.48v-28.42h34.49v28.42h-34.49Zm34.49,19.43v125.58h-34.49v-125.58h34.49Z"/>
    <path class="cls-1" d="M967.42,285.06v173.43h-34.49v-173.43h34.49Z"/>
    <path class="cls-1" d="M1030.09,285.06v173.43h-34.49v-173.43h34.49Z"/>
    <path class="cls-1" d="M1086.32,427.28c1.54,2.67,3.52,4.86,5.95,6.56,2.43,1.7,5.22,2.96,8.38,3.77,3.16,.81,6.44,1.21,9.84,1.21,2.43,0,4.98-.28,7.65-.85,2.67-.56,5.1-1.46,7.29-2.67,2.18-1.21,4.01-2.83,5.46-4.86,1.46-2.02,2.19-4.57,2.19-7.65,0-5.18-3.44-9.07-10.32-11.66-6.89-2.59-16.48-5.18-28.79-7.77-5.02-1.13-9.92-2.47-14.7-4.01-4.78-1.54-9.03-3.56-12.75-6.07-3.73-2.51-6.72-5.67-8.99-9.47-2.27-3.8-3.4-8.46-3.4-13.97,0-8.1,1.58-14.73,4.74-19.92,3.16-5.18,7.32-9.27,12.51-12.27,5.18-2.99,11.01-5.1,17.49-6.32,6.48-1.21,13.12-1.82,19.92-1.82s13.4,.65,19.8,1.94c6.39,1.3,12.1,3.48,17.12,6.56,5.02,3.08,9.19,7.16,12.51,12.27,3.32,5.1,5.3,11.54,5.95,19.31h-32.79c-.49-6.64-3-11.13-7.53-13.48-4.53-2.35-9.88-3.52-16.03-3.52-1.94,0-4.05,.12-6.32,.36-2.27,.24-4.33,.77-6.19,1.58-1.86,.81-3.44,1.98-4.74,3.52-1.3,1.54-1.94,3.61-1.94,6.19,0,3.08,1.13,5.59,3.4,7.53,2.27,1.94,5.23,3.52,8.87,4.74,3.64,1.21,7.81,2.31,12.51,3.28,4.7,.97,9.47,2.03,14.33,3.16,5.02,1.13,9.91,2.51,14.7,4.13,4.77,1.62,9.02,3.77,12.75,6.44,3.72,2.67,6.72,5.99,8.99,9.96,2.27,3.97,3.4,8.87,3.4,14.7,0,8.26-1.66,15.18-4.98,20.77-3.32,5.59-7.65,10.08-12.99,13.48-5.34,3.4-11.46,5.79-18.34,7.16-6.88,1.37-13.89,2.07-21.01,2.07s-14.41-.73-21.38-2.19c-6.96-1.46-13.16-3.89-18.58-7.29-5.43-3.4-9.88-7.89-13.36-13.48-3.48-5.59-5.39-12.59-5.71-21.01h32.79c0,3.73,.76,6.92,2.31,9.59Z"/>
    <path class="cls-1" d="M1229.03,458.49l-56.11-173.43h39.11l38.62,121.94h.48l39.11-121.94h39.35l-57.57,173.43h-42.99Z"/>
    <path class="cls-1" d="M1337.36,313.48v-28.42h34.49v28.42h-34.49Zm34.49,19.43v125.58h-34.49v-125.58h34.49Z"/>
    <path class="cls-1" d="M1434.52,285.06v173.43h-34.49v-173.43h34.49Z"/>
    <path class="cls-1" d="M1497.19,285.06v173.43h-34.49v-173.43h34.49Z"/>
    <path class="cls-1" d="M1561.32,428.37c5.18,5.02,12.63,7.53,22.35,7.53,6.96,0,12.95-1.74,17.97-5.22,5.02-3.48,8.1-7.16,9.23-11.05h30.36c-4.86,15.06-12.31,25.83-22.35,32.31-10.04,6.48-22.19,9.72-36.43,9.72-9.88,0-18.79-1.58-26.72-4.74-7.94-3.16-14.66-7.65-20.16-13.48-5.51-5.83-9.76-12.79-12.75-20.89-3-8.1-4.49-17-4.49-26.72s1.54-18.13,4.61-26.23c3.08-8.1,7.45-15.1,13.12-21.01,5.67-5.91,12.43-10.57,20.28-13.97,7.85-3.4,16.56-5.1,26.11-5.1,10.69,0,20,2.06,27.93,6.19,7.93,4.13,14.45,9.68,19.55,16.64,5.1,6.96,8.78,14.9,11.05,23.8,2.27,8.91,3.08,18.22,2.43,27.93h-90.6c.49,11.17,3.32,19.27,8.5,24.29Zm38.99-66.07c-4.13-4.53-10.41-6.8-18.83-6.8-5.51,0-10.08,.93-13.72,2.79-3.64,1.86-6.56,4.17-8.75,6.92-2.18,2.76-3.73,5.67-4.61,8.75-.89,3.08-1.42,5.83-1.58,8.26h56.11c-1.62-8.75-4.49-15.38-8.62-19.92Z"/>
    <path class="cls-3" d="M814.88,471.99v32.06h-83.8v40.08h72.63v29.63h-72.63v71.66h-38.14v-173.43h121.94Z"/>
    <path class="cls-3" d="M831.88,558.46c.49-8.1,2.51-14.82,6.07-20.16,3.56-5.34,8.1-9.63,13.6-12.87,5.51-3.24,11.7-5.55,18.58-6.92,6.88-1.37,13.8-2.06,20.77-2.06,6.32,0,12.71,.45,19.19,1.34,6.48,.89,12.39,2.63,17.73,5.22,5.35,2.59,9.72,6.19,13.12,10.81,3.4,4.61,5.1,10.73,5.1,18.34v65.34c0,5.67,.32,11.09,.97,16.27,.64,5.18,1.78,9.07,3.4,11.66h-34.98c-.65-1.94-1.18-3.92-1.58-5.95-.4-2.02-.69-4.09-.85-6.19-5.51,5.67-11.98,9.64-19.43,11.9-7.45,2.27-15.06,3.4-22.83,3.4-6,0-11.58-.73-16.76-2.19-5.18-1.46-9.72-3.72-13.6-6.8-3.89-3.07-6.92-6.96-9.11-11.66-2.18-4.69-3.28-10.28-3.28-16.76,0-7.12,1.25-13,3.77-17.61,2.51-4.62,5.75-8.3,9.72-11.05,3.97-2.75,8.5-4.82,13.6-6.19,5.1-1.37,10.24-2.47,15.42-3.28,5.18-.81,10.28-1.46,15.3-1.94,5.02-.49,9.47-1.21,13.36-2.19,3.89-.97,6.96-2.39,9.23-4.25,2.27-1.86,3.32-4.57,3.16-8.14,0-3.72-.61-6.68-1.82-8.87-1.21-2.19-2.83-3.89-4.86-5.1-2.02-1.21-4.37-2.02-7.04-2.43-2.67-.4-5.55-.61-8.62-.61-6.8,0-12.15,1.46-16.03,4.37-3.89,2.92-6.16,7.77-6.8,14.57h-34.49Zm79.67,25.51c-1.46,1.3-3.28,2.31-5.47,3.04-2.18,.73-4.54,1.34-7.04,1.82-2.51,.48-5.14,.89-7.89,1.21-2.76,.33-5.51,.73-8.26,1.21-2.59,.49-5.14,1.13-7.65,1.94-2.51,.81-4.7,1.9-6.56,3.28-1.86,1.38-3.36,3.12-4.49,5.22-1.13,2.11-1.7,4.78-1.7,8.02s.56,5.67,1.7,7.77c1.13,2.11,2.67,3.77,4.61,4.98,1.95,1.21,4.21,2.06,6.8,2.55,2.59,.48,5.26,.73,8.02,.73,6.8,0,12.06-1.13,15.79-3.4,3.72-2.26,6.47-4.98,8.26-8.14,1.78-3.16,2.87-6.35,3.28-9.59,.4-3.24,.61-5.83,.61-7.77v-12.87Z"/>
    <path class="cls-3" d="M1005.55,519.84v23.32h.49c1.62-3.89,3.8-7.49,6.56-10.81,2.75-3.32,5.91-6.15,9.47-8.5,3.56-2.34,7.37-4.17,11.42-5.47,4.05-1.29,8.26-1.94,12.63-1.94,2.27,0,4.77,.41,7.53,1.21v32.06c-1.62-.32-3.56-.61-5.83-.85-2.27-.24-4.46-.36-6.56-.36-6.31,0-11.66,1.05-16.03,3.16-4.37,2.11-7.89,4.98-10.56,8.62-2.67,3.64-4.58,7.89-5.71,12.75-1.14,4.86-1.7,10.12-1.7,15.79v56.6h-34.49v-125.58h32.79Z"/>
    <path class="cls-3" d="M1100.77,519.84v17h.49c4.53-6.47,10-11.5,16.4-15.06,6.39-3.56,13.73-5.34,21.98-5.34s15.18,1.54,21.74,4.62c6.56,3.08,11.54,8.5,14.94,16.27,3.72-5.5,8.78-10.36,15.18-14.57,6.4-4.21,13.97-6.32,22.71-6.32,6.64,0,12.79,.81,18.46,2.43,5.67,1.62,10.53,4.21,14.57,7.77,4.05,3.56,7.2,8.22,9.47,13.97,2.27,5.75,3.4,12.67,3.4,20.77v84.05h-34.49v-71.17c0-4.21-.16-8.18-.49-11.9-.33-3.72-1.21-6.96-2.67-9.72-1.46-2.75-3.61-4.94-6.44-6.56-2.83-1.62-6.68-2.43-11.54-2.43s-8.79,.93-11.78,2.79c-3,1.86-5.34,4.29-7.04,7.29-1.7,3-2.83,6.4-3.4,10.2-.57,3.81-.85,7.65-.85,11.54v69.96h-34.49v-70.44c0-3.72-.08-7.41-.24-11.05-.16-3.64-.85-7-2.07-10.08-1.21-3.07-3.24-5.55-6.07-7.41-2.83-1.86-7.01-2.79-12.51-2.79-1.62,0-3.77,.36-6.44,1.09-2.67,.73-5.26,2.11-7.77,4.13-2.51,2.03-4.66,4.94-6.44,8.75-1.79,3.81-2.67,8.79-2.67,14.94v72.87h-34.49v-125.58h32.55Z"/>
    <path class="cls-3" d="M1316.34,614.21c1.54,2.67,3.52,4.86,5.95,6.56,2.43,1.7,5.22,2.96,8.38,3.77,3.16,.81,6.44,1.21,9.84,1.21,2.43,0,4.98-.28,7.65-.85,2.67-.56,5.1-1.46,7.29-2.67,2.18-1.21,4.01-2.83,5.46-4.86,1.46-2.02,2.19-4.57,2.19-7.65,0-5.18-3.44-9.07-10.32-11.66-6.89-2.59-16.48-5.18-28.79-7.77-5.02-1.13-9.92-2.47-14.7-4.01-4.78-1.54-9.03-3.56-12.75-6.07-3.73-2.51-6.72-5.67-8.99-9.47-2.27-3.8-3.4-8.46-3.4-13.97,0-8.1,1.58-14.73,4.74-19.92,3.16-5.18,7.32-9.27,12.51-12.27,5.18-2.99,11.01-5.1,17.49-6.32,6.48-1.21,13.12-1.82,19.92-1.82s13.4,.65,19.8,1.94c6.39,1.3,12.1,3.48,17.12,6.56,5.02,3.08,9.19,7.16,12.51,12.27,3.32,5.1,5.3,11.54,5.95,19.31h-32.79c-.49-6.64-3-11.13-7.53-13.48-4.53-2.35-9.88-3.52-16.03-3.52-1.94,0-4.05,.12-6.32,.36-2.27,.24-4.33,.77-6.19,1.58-1.86,.81-3.44,1.98-4.74,3.52-1.3,1.54-1.94,3.61-1.94,6.19,0,3.08,1.13,5.59,3.4,7.53,2.27,1.94,5.23,3.52,8.87,4.74,3.64,1.21,7.81,2.31,12.51,3.28,4.7,.97,9.47,2.03,14.33,3.16,5.02,1.13,9.91,2.51,14.7,4.13,4.77,1.62,9.02,3.77,12.75,6.44,3.72,2.67,6.72,5.99,8.99,9.96,2.27,3.97,3.4,8.87,3.4,14.7,0,8.26-1.66,15.18-4.98,20.77-3.32,5.59-7.65,10.08-12.99,13.48s-11.46,5.79-18.34,7.16c-6.88,1.37-13.89,2.07-21.01,2.07s-14.41-.73-21.38-2.19c-6.96-1.46-13.16-3.89-18.58-7.29-5.43-3.4-9.88-7.89-13.36-13.48-3.48-5.59-5.39-12.59-5.71-21.01h32.79c0,3.73,.76,6.92,2.31,9.59Z"/>
  </g>
  <g>
    <g>
      <path class="cls-2" d="M147.95,350.1l137.94,50.86c12.59,4.64,24.64-8.02,19.37-20.36l-57.11-133.8c-5.1-11.95-19.63-16.51-30.66-9.65-22.43,13.95-57.38,41.21-80.13,85.64-5.35,10.45-.43,23.25,10.59,27.31Z"/>
      <path class="cls-4" d="M291.3,405.31c-2.19,0-4.4-.39-6.57-1.19l-137.94-50.86c-6.13-2.26-11.01-7.05-13.38-13.14-2.39-6.13-2.04-13.01,.96-18.88,22.57-44.1,56.7-71.64,81.35-86.97,6.1-3.79,13.53-4.73,20.37-2.58,6.83,2.16,12.36,7.17,15.18,13.77l57.11,133.81c2.97,6.97,1.58,14.71-3.64,20.2-3.63,3.82-8.44,5.84-13.42,5.84Zm-142.18-58.38l137.94,50.86c5.43,2,10.16-.22,12.77-2.97,2.61-2.75,4.6-7.58,2.33-12.91l-57.11-133.81c-2.04-4.78-6.05-8.42-11.01-9.98-4.96-1.57-10.35-.88-14.78,1.87-23.93,14.88-57.04,41.59-78.91,84.32-2.13,4.15-2.37,9.02-.68,13.35,1.68,4.29,5.12,7.67,9.44,9.26h0Z"/>
    </g>
    <g>
      <path class="cls-2" d="M560.84,345.66l-137.94,50.86c-12.59,4.64-24.64-8.02-19.37-20.36l57.11-133.8c5.1-11.95,19.63-16.51,30.66-9.65,22.43,13.95,57.38,41.21,80.13,85.64,5.35,10.45,.43,23.25-10.59,27.31Z"/>
      <path class="cls-4" d="M417.5,400.88c-4.98,0-9.79-2.02-13.42-5.84-5.22-5.49-6.62-13.23-3.64-20.2l57.11-133.8c2.81-6.59,8.35-11.61,15.18-13.77,6.84-2.16,14.27-1.22,20.37,2.58,24.65,15.33,58.78,42.87,81.35,86.97,3,5.87,3.35,12.75,.96,18.88-2.38,6.09-7.25,10.88-13.38,13.14l-137.94,50.86c-2.17,.8-4.39,1.19-6.57,1.19Zm62.6-168.01c-1.8,0-3.6,.27-5.35,.83-4.95,1.56-8.96,5.2-11.01,9.98l-57.11,133.8c-2.27,5.32-.29,10.16,2.33,12.91,2.61,2.75,7.34,4.97,12.77,2.97l137.94-50.86c4.32-1.59,7.76-4.97,9.43-9.26,1.69-4.33,1.44-9.2-.68-13.35-21.87-42.73-54.98-69.44-78.91-84.32-2.87-1.78-6.13-2.7-9.42-2.7Z"/>
    </g>
    <g>
      <path class="cls-2" d="M424.16,229.79l-56.18,135.86c-5.13,12.4-22.6,12.66-28.1,.42l-59.59-132.72c-5.32-11.85,1.18-25.63,13.7-29.08,25.47-7.02,69.2-14.22,117.28-.79,11.31,3.16,17.38,15.45,12.89,26.31Z"/>
      <path class="cls-4" d="M353.82,378.48c-7.45,0-13.95-4.2-17.02-11.03l-59.59-132.72c-2.94-6.54-2.87-14.01,.18-20.49,3.05-6.49,8.78-11.31,15.7-13.22,27.99-7.72,71.36-14.12,119.08-.79,6.35,1.77,11.64,6.18,14.52,12.1,2.86,5.88,3.07,12.71,.58,18.74l-56.18,135.86c-2.9,7-9.4,11.42-16.98,11.54-.1,0-.2,0-.3,0Zm1.32-179.21c-23.71,0-44.49,3.92-60.26,8.26-5.03,1.38-9.18,4.88-11.4,9.59-2.21,4.7-2.26,10.11-.13,14.86l59.59,132.72c2.37,5.28,7.21,7.1,11.06,7.04,3.79-.06,8.64-2.02,10.85-7.37l56.18-135.86c1.76-4.25,1.61-9.07-.41-13.22-2.04-4.18-5.78-7.3-10.27-8.56-19.4-5.42-38.08-7.47-55.22-7.47Z"/>
    </g>
    <path class="cls-5" d="M101.4,541.57c-4.64,0-9.28-.99-13.61-2.96-8.75-3.98-15.29-11.57-17.96-20.81-8.35-28.9-15.53-73.8-2.31-123.52,2.31-8.67,8.23-15.95,16.23-19.97,7.96-4,17.28-4.4,25.56-1.1h0l136.54,54.5c10.18,4.06,16.68,13.39,16.98,24.35,.3,10.95-5.69,20.62-15.63,25.23l-131.97,61.22c-4.39,2.04-9.11,3.06-13.83,3.06Zm-3.64-147.19c-1.53,0-2.76,.47-3.51,.84-1.19,.6-3.31,2.06-4.12,5.08-11.85,44.54-5.36,84.95,2.17,111,1.06,3.66,3.7,5.33,5.18,6.01,1.48,.67,4.46,1.56,7.89-.03l131.97-61.22c1.77-.82,2.11-2.28,2.08-3.36-.03-1.08-.44-2.52-2.26-3.25l-136.54-54.5c-1.03-.41-2-.56-2.87-.56Z"/>
    <g>
      <path class="cls-2" d="M578.16,371.13l-134.09,60.28c-12.24,5.5-11.97,22.98,.43,28.1l134.47,55.53c12.01,4.96,25.58-1.96,28.65-14.58,6.24-25.67,12.11-69.6-2.77-117.25-3.5-11.21-15.97-16.9-26.68-12.08Z"/>
      <path class="cls-4" d="M587.05,520.02c-3.18,0-6.36-.62-9.37-1.86l-134.47-55.53c-7-2.89-11.43-9.4-11.54-16.97s4.1-14.21,11.01-17.32l134.09-60.28c5.96-2.68,12.79-2.67,18.75,0,6,2.7,10.57,7.86,12.53,14.15,14.77,47.29,9.69,90.84,2.83,119.05-1.7,6.98-6.34,12.85-12.74,16.1-3.48,1.77-7.29,2.66-11.1,2.66Zm-7.51-145.82l-134.09,60.28c-5.28,2.37-7.1,7.27-7.04,11.07,.06,3.79,2.03,8.64,7.38,10.84l134.47,55.53c4.8,1.98,10.22,1.77,14.85-.58,4.64-2.36,8.01-6.62,9.24-11.68,6.66-27.38,11.6-69.63-2.71-115.45-1.39-4.45-4.62-8.1-8.87-10.01-4.2-1.89-9.02-1.89-13.22,0Z"/>
    </g>
    <g>
      <path class="cls-2" d="M438.56,667.34l-60.11-134.17c-5.49-12.25-22.96-12-28.1,.4l-55.71,134.39c-4.97,12,1.92,25.58,14.54,28.67,25.66,6.28,69.58,12.2,117.25-2.62,11.21-3.49,16.92-15.95,12.12-26.67Z"/>
      <path class="cls-4" d="M364.17,706.69c-21.74,0-40.9-3.15-55.78-6.79-6.98-1.71-12.84-6.36-16.08-12.76-3.24-6.39-3.52-13.85-.77-20.48l55.71-134.39c2.9-7,9.41-11.41,16.99-11.52,7.66-.13,14.21,4.12,17.3,11.04l60.11,134.17c2.67,5.96,2.66,12.79-.03,18.75-2.71,6-7.87,10.56-14.16,12.52-22.33,6.94-43.83,9.46-63.27,9.46Zm.31-179.2c-.05,0-.11,0-.16,0-3.79,.05-8.64,2.01-10.85,7.36l-55.71,134.39c-1.99,4.8-1.79,10.22,.56,14.85,2.35,4.64,6.61,8.01,11.67,9.25,27.37,6.7,69.62,11.69,115.45-2.56,4.45-1.38,8.11-4.61,10.02-8.85,1.9-4.2,1.91-9.02,.02-13.22l-60.11-134.17c-2.33-5.21-7.12-7.05-10.89-7.05Z"/>
    </g>
    <g>
      <g>
        <path class="cls-2" d="M159.09,557.95l137.94-50.86c12.59-4.64,24.64,8.02,19.37,20.36l-57.11,133.8c-5.1,11.95-19.63,16.51-30.66,9.65-22.43-13.95-57.38-41.21-80.13-85.64-5.35-10.45-.43-23.25,10.59-27.31Z"/>
        <path class="cls-4" d="M239.83,677.49c-4.54,0-9.04-1.26-12.98-3.71-24.65-15.33-58.78-42.87-81.35-86.97-3-5.87-3.35-12.75-.96-18.88,2.38-6.09,7.26-10.88,13.38-13.14l137.94-50.86c7.11-2.62,14.77-.84,19.99,4.65,5.22,5.49,6.62,13.23,3.64,20.2l-57.11,133.81c-2.81,6.59-8.35,11.61-15.18,13.77-2.42,.76-4.91,1.14-7.38,1.14Zm-79.57-116.37h0c-4.32,1.59-7.76,4.97-9.43,9.26-1.69,4.33-1.44,9.2,.68,13.35,21.87,42.73,54.98,69.44,78.91,84.32,4.43,2.75,9.81,3.43,14.78,1.87,4.95-1.56,8.97-5.2,11.01-9.98l57.11-133.81c2.27-5.32,.29-10.16-2.33-12.9-2.62-2.75-7.34-4.97-12.77-2.97l-137.94,50.86Z"/>
      </g>
      <g>
        <path class="cls-2" d="M571.98,548.16l-137.94-50.86c-12.59-4.64-24.64,8.02-19.37,20.36l57.11,133.8c5.1,11.95,19.63,16.51,30.66,9.65,22.43-13.95,57.38-41.21,80.13-85.64,5.35-10.45,.43-23.25-10.59-27.31Z"/>
        <path class="cls-4" d="M491.24,667.69c-2.48,0-4.97-.38-7.38-1.14-6.83-2.15-12.36-7.17-15.18-13.77l-57.11-133.8c-2.97-6.97-1.58-14.71,3.64-20.2,5.22-5.49,12.88-7.27,19.99-4.65l137.94,50.86c6.13,2.26,11,7.05,13.38,13.13,2.39,6.13,2.04,13.01-.96,18.88-22.57,44.1-56.7,71.64-81.35,86.97-3.94,2.45-8.44,3.71-12.98,3.71Zm-62.56-168c-3.62,0-6.67,1.73-8.58,3.74-2.61,2.75-4.6,7.58-2.33,12.91l57.11,133.8c2.04,4.78,6.05,8.42,11.01,9.98,4.96,1.56,10.35,.88,14.78-1.87,23.93-14.88,57.04-41.59,78.91-84.32,2.13-4.15,2.37-9.02,.68-13.35-1.68-4.29-5.12-7.67-9.43-9.26l-137.94-50.86c-1.46-.54-2.86-.77-4.19-.77Z"/>
      </g>
    </g>
  </g>
</svg>